<svg xmlns="http://www.w3.org/2000/svg" version="1.1" xmlns:xlink="http://www.w3.org/1999/xlink" xmlns:svgjs="http://svgjs.dev/svgjs" width="2000" height="1500" viewBox="0 0 2000 1500"><rect width="2000" height="1500" fill="#ffffff"></rect><g transform="matrix(0.75,0,0,0.75,250,281.25)"><svg viewBox="0 0 512 320" data-background-color="#ffffff" preserveAspectRatio="xMidYMid meet" height="1250" width="2000" xmlns="http://www.w3.org/2000/svg" xmlns:xlink="http://www.w3.org/1999/xlink"><g id="tight-bounds" transform="matrix(1,0,0,1,0,0)"><svg viewBox="0 0 512 320" height="320" width="512"><g><svg></svg></g><g><svg viewBox="0 0 512 320" height="320" width="512"><g><path xmlns="http://www.w3.org/2000/svg" d="M96 160c0-88.366 71.634-160 160-160 88.366 0 160 71.634 160 160 0 88.366-71.634 160-160 160-88.366 0-160-71.634-160-160z" fill="#8b3c7f" fill-rule="nonzero" stroke="none" stroke-width="1" stroke-linecap="butt" stroke-linejoin="miter" stroke-miterlimit="10" stroke-dasharray="" stroke-dashoffset="0" font-family="none" font-weight="none" font-size="none" text-anchor="none" style="mix-blend-mode: normal" data-fill-palette-color="tertiary"></path></g><g transform="matrix(1,0,0,1,153.6,83.38310210481083)"><svg viewBox="0 0 204.8 153.23379579037834" height="153.23379579037834" width="204.8"><g><svg viewBox="0 0 204.8 153.23379579037834" height="153.23379579037834" width="204.8"><g><svg viewBox="0 0 204.8 153.23379579037834" height="153.23379579037834" width="204.8"><g><svg viewBox="0 0 204.8 153.23379579037834" height="153.23379579037834" width="204.8"><g id="textblocktransform"><svg viewBox="0 0 204.8 153.23379579037834" height="153.23379579037834" width="204.8" id="textblock"><g><svg viewBox="0 0 204.8 82.64698738907053" height="82.64698738907053" width="204.8"><g transform="matrix(1,0,0,1,0,0)"><svg width="204.8" viewBox="1.149999976158142 -40.43000030517578 104.52999877929688 42.189998626708984" height="82.64698738907053" data-palette-color="#ffffff"><path d="M4.15-8.79L4.15-8.79 1.15-8.79 1.15-10.55 4.15-10.55Q5.44-10.55 6.32-11.52 7.2-12.5 7.2-14.11L7.2-14.11 7.2-40.43 8.96-40.43 8.96-14.11Q8.96-11.79 7.57-10.29 6.18-8.79 4.15-8.79ZM4.15-5.27L4.15-5.27 1.15-5.27 1.15-7.03 4.15-7.03Q6.88-7.03 8.8-9.11 10.72-11.18 10.72-14.11L10.72-14.11 10.72-40.43 12.48-40.43 12.48-14.11Q12.48-10.45 10.05-7.86 7.62-5.27 4.15-5.27ZM4.15-1.76L4.15-1.76 1.15-1.76 1.15-3.52 4.15-3.52Q8.35-3.52 11.29-6.62 14.23-9.72 14.23-14.11L14.23-14.11 14.23-40.43 15.99-40.43 15.99-14.11Q15.99-10.77 14.42-7.92 12.84-5.08 10.11-3.42 7.37-1.76 4.15-1.76ZM4.15 1.76L4.15 1.76 1.15 1.76 1.15 0 4.15 0Q6.93 0 9.45-1.12 11.96-2.25 13.78-4.14 15.6-6.03 16.67-8.64 17.75-11.25 17.75-14.11L17.75-14.11 17.75-40.43 19.51-40.43 19.51-14.11Q19.51-10.89 18.3-7.96 17.09-5.03 15.03-2.89 12.96-0.76 10.12 0.5 7.28 1.76 4.15 1.76ZM37.67-17.38L37.67-19.14 47.87-19.14Q50.39-19.14 52.13-20.84 53.88-22.53 53.88-25.63L53.88-25.63Q53.88-27.95 52.05-29.8 50.22-31.64 47.87-31.64L47.87-31.64 32.79-31.64 32.79 0 31.03 0 31.03-33.4 47.87-33.4Q50.95-33.4 53.29-31.03 55.64-28.66 55.64-25.63L55.64-25.63Q55.64-21.9 53.37-19.64 51.1-17.38 47.87-17.38L47.87-17.38 37.67-17.38ZM37.67-13.87L37.67-15.63 47.87-15.63Q50.41-15.63 52.57-16.86 54.73-18.09 56.06-20.41 57.39-22.73 57.39-25.63L57.39-25.63Q57.39-29.39 54.53-32.28 51.66-35.16 47.87-35.16L47.87-35.16 29.27-35.16 29.27 0 27.51 0 27.51-36.91 47.87-36.91Q50.83-36.91 53.44-35.35 56.05-33.79 57.6-31.18 59.15-28.56 59.15-25.63L59.15-25.63Q59.15-22.31 57.59-19.59 56.03-16.87 53.45-15.37 50.88-13.87 47.87-13.87L47.87-13.87 37.67-13.87ZM37.67-10.35L37.67-12.11 47.87-12.11Q50.49-12.11 52.88-13.15 55.27-14.18 57.04-15.95 58.81-17.72 59.86-20.25 60.91-22.78 60.91-25.63L60.91-25.63Q60.91-29.05 59.13-32.07 57.35-35.08 54.33-36.88 51.32-38.67 47.87-38.67L47.87-38.67 25.75-38.67 25.75 0 24 0 24-40.43 47.87-40.43Q51.78-40.43 55.2-38.39 58.62-36.35 60.64-32.93 62.67-29.52 62.67-25.63L62.67-25.63Q62.67-22.17 61.47-19.25 60.28-16.33 58.25-14.4 56.22-12.48 53.54-11.41 50.85-10.35 47.87-10.35L47.87-10.35 37.67-10.35ZM36.3-28.13L36.3 0 34.54 0 34.54-29.88 47.87-29.88Q49.61-29.88 50.86-28.61 52.12-27.34 52.12-25.63L52.12-25.63Q52.12-20.9 47.87-20.9L47.87-20.9 37.67-20.9 37.67-22.66 47.87-22.66Q49.05-22.66 49.7-23.32 50.36-23.97 50.36-25.63L50.36-25.63Q50.36-26.71 49.64-27.42 48.92-28.13 47.87-28.13L47.87-28.13 36.3-28.13ZM93.38-14.09L93.38-14.09Q93.38-15.04 92.81-15.36 92.23-15.67 91.13-15.67L91.13-15.67 79.8-15.67 79.8-17.43 91.13-17.43Q95.14-17.43 95.14-14.09L95.14-14.09Q95.14-12.21 94.04-11.38 92.94-10.55 91.13-10.55L91.13-10.55 79.8-10.55 79.8-12.3 91.13-12.3Q93.38-12.3 93.38-14.09ZM78.83-28.13L78.83 0 77.07 0 77.07-29.88 91.13-29.88Q92.79-29.88 93.96-28.87 95.14-27.86 95.14-26.34L95.14-26.34Q95.14-24.34 94.04-23.45 92.94-22.56 91.13-22.56L91.13-22.56 79.8-22.56 79.8-24.32 91.13-24.32Q93.38-24.32 93.38-26.34L93.38-26.34Q93.38-27.17 92.74-27.65 92.11-28.13 91.13-28.13L91.13-28.13 78.83-28.13ZM79.8-19.04L79.8-20.8 91.13-20.8Q93.55-20.8 95.22-22.25 96.89-23.71 96.89-26.34L96.89-26.34Q96.89-28.47 95.15-30.05 93.4-31.64 91.13-31.64L91.13-31.64 75.31-31.64 75.31 0 73.55 0 73.55-33.4 91.13-33.4Q94.14-33.4 96.39-31.29 98.65-29.17 98.65-26.34L98.65-26.34Q98.65-24.12 97.61-22.46 96.58-20.8 94.82-19.9L94.82-19.9Q98.65-18.53 98.65-14.33L98.65-14.33Q98.65-11.01 96.45-9.02 94.26-7.03 91.13-7.03L91.13-7.03 79.8-7.03 79.8-8.79 91.13-8.79Q93.55-8.79 95.22-10.24 96.89-11.69 96.89-14.33L96.89-14.33Q96.89-16.11 95.62-17.48 94.36-18.85 91.89-19.07L91.89-19.07Q91.65-19.04 91.13-19.04L91.13-19.04 79.8-19.04ZM102.17-26.34L102.17-26.34Q102.17-22.92 99.75-20.17L99.75-20.17Q102.17-17.48 102.17-14.33L102.17-14.33Q102.17-11.28 100.64-8.78 99.12-6.27 96.59-4.9 94.06-3.52 91.13-3.52L91.13-3.52 79.8-3.52 79.8-5.27 91.13-5.27Q94.94-5.27 97.68-7.82 100.41-10.38 100.41-14.33L100.41-14.33Q100.41-15.75 99.69-17.47 98.97-19.19 97.7-20.09L97.7-20.09Q100.41-22.63 100.41-26.34L100.41-26.34Q100.41-29.91 97.63-32.53 94.84-35.16 91.13-35.16L91.13-35.16 71.8-35.16 71.8 0 70.04 0 70.04-36.91 91.13-36.91Q94.04-36.91 96.59-35.49 99.14-34.06 100.65-31.6 102.17-29.15 102.17-26.34ZM101.75-20.07L101.75-20.07Q103.93-22.97 103.93-26.34L103.93-26.34Q103.93-29.64 102.18-32.48 100.43-35.33 97.48-37 94.53-38.67 91.13-38.67L91.13-38.67 68.28-38.67 68.28 0 66.52 0 66.52-40.43 91.13-40.43Q94.99-40.43 98.35-38.53 101.7-36.62 103.69-33.36 105.68-30.1 105.68-26.34L105.68-26.34Q105.68-22.75 103.66-20.04L103.66-20.04Q105.68-17.24 105.68-14.33L105.68-14.33Q105.68-11.06 104.51-8.34 103.34-5.62 101.35-3.81 99.36-2 96.72-1 94.09 0 91.13 0L91.13 0 79.8 0 79.8-1.76 91.13-1.76Q93.7-1.76 96.04-2.72 98.38-3.69 100.12-5.35 101.85-7.01 102.89-9.35 103.93-11.69 103.93-14.33L103.93-14.33Q103.93-15.5 103.38-17.15 102.83-18.8 101.75-20.07Z" opacity="1" transform="matrix(1,0,0,1,0,0)" fill="#ffffff" class="wordmark-text-0" data-fill-palette-color="quaternary" id="text-0"></path></svg></g></svg></g><g transform="matrix(1,0,0,1,0,102.15795758393274)"><svg viewBox="0 0 204.8 51.075838206445596" height="51.075838206445596" width="204.8"><g transform="matrix(1,0,0,1,0,0)"><svg width="204.8" viewBox="2.5999999046325684 -37.630001068115234 153.5699920654297 38.310001373291016" height="51.075838206445596" data-palette-color="#ffffff"><path d="M17.9-35.2L17.9-35.2Q21.4-35.2 23.81-34.29 26.23-33.38 28.3-31.68L28.3-31.68 25.28-28.08Q23.73-29.38 21.95-30 20.18-30.63 18.18-30.63L18.18-30.63Q15.6-30.63 13.43-29.33 11.25-28.03 9.94-25.1 8.63-22.18 8.63-17.3L8.63-17.3Q8.63-12.53 9.88-9.6 11.13-6.68 13.3-5.35 15.48-4.03 18.18-4.03L18.18-4.03Q20.95-4.03 22.78-4.94 24.6-5.85 26-7L26-7 28.8-3.43Q27.08-1.75 24.43-0.54 21.78 0.68 17.98 0.68L17.98 0.68Q13.6 0.68 10.11-1.39 6.63-3.45 4.61-7.45 2.6-11.45 2.6-17.3L2.6-17.3Q2.6-23.1 4.67-27.09 6.75-31.08 10.23-33.14 13.7-35.2 17.9-35.2ZM47.64-27.1L47.64-27.1Q51.52-27.1 54.17-25.38 56.82-23.65 58.18-20.55 59.54-17.45 59.54-13.25L59.54-13.25Q59.54-9.08 58.16-5.94 56.77-2.8 54.11-1.06 51.44 0.68 47.62 0.68L47.62 0.68Q43.79 0.68 41.13-1.01 38.47-2.7 37.08-5.83 35.69-8.95 35.69-13.2L35.69-13.2Q35.69-17.32 37.08-20.45 38.47-23.58 41.14-25.34 43.82-27.1 47.64-27.1ZM47.64-22.75L47.64-22.75Q44.62-22.75 43.09-20.44 41.57-18.13 41.57-13.2L41.57-13.2Q41.57-8.3 43.08-5.98 44.59-3.65 47.62-3.65L47.62-3.65Q50.64-3.65 52.16-5.98 53.67-8.3 53.67-13.25L53.67-13.25Q53.67-18.13 52.17-20.44 50.67-22.75 47.64-22.75ZM85.19-24.23L85.19-37.63 90.79-37 90.79 0 85.86 0 85.46-3.25Q84.11-1.38 82.24-0.35 80.36 0.68 78.04 0.68L78.04 0.68Q74.64 0.68 72.44-1.06 70.24-2.8 69.17-5.94 68.11-9.08 68.11-13.2L68.11-13.2Q68.11-17.23 69.36-20.36 70.61-23.5 72.94-25.3 75.26-27.1 78.54-27.1L78.54-27.1Q80.61-27.1 82.26-26.36 83.91-25.63 85.19-24.23L85.19-24.23ZM80.01-22.8L80.01-22.8Q77.19-22.8 75.61-20.46 74.04-18.13 74.04-13.2L74.04-13.2Q74.04-9.83 74.69-7.71 75.34-5.6 76.56-4.61 77.79-3.63 79.51-3.63L79.51-3.63Q81.41-3.63 82.81-4.73 84.21-5.83 85.19-7.38L85.19-7.38 85.19-19.88Q84.21-21.28 82.91-22.04 81.61-22.8 80.01-22.8ZM124.45-11.4L106.95-11.4Q107.13-8.7 108.1-6.99 109.08-5.28 110.67-4.48 112.25-3.68 114.15-3.68L114.15-3.68Q116.1-3.68 117.75-4.28 119.4-4.88 121.08-5.98L121.08-5.98 123.5-2.63Q121.65-1.13 119.18-0.23 116.7 0.68 113.88 0.68L113.88 0.68Q109.78 0.68 106.94-1.07 104.1-2.83 102.63-5.95 101.15-9.08 101.15-13.18L101.15-13.18Q101.15-17.15 102.6-20.29 104.05-23.43 106.75-25.26 109.45-27.1 113.2-27.1L113.2-27.1Q116.73-27.1 119.27-25.5 121.8-23.9 123.19-20.96 124.58-18.03 124.58-13.9L124.58-13.9Q124.58-13.23 124.54-12.56 124.5-11.9 124.45-11.4L124.45-11.4ZM113.25-22.95L113.25-22.95Q110.63-22.95 108.92-21.08 107.2-19.2 106.93-15.23L106.93-15.23 119.15-15.23Q119.08-18.95 117.57-20.95 116.05-22.95 113.25-22.95ZM144.52-3.63L144.52-3.63Q147.15-3.63 148.7-4.56 150.25-5.5 150.25-7.15L150.25-7.15Q150.25-8.22 149.8-8.99 149.35-9.75 148-10.39 146.65-11.03 143.9-11.73L143.9-11.73Q141.3-12.4 139.33-13.33 137.37-14.25 136.3-15.73 135.22-17.2 135.22-19.53L135.22-19.53Q135.22-21.8 136.5-23.5 137.77-25.2 140.16-26.15 142.55-27.1 145.77-27.1L145.77-27.1Q149.1-27.1 151.57-26.23 154.05-25.35 155.8-24.05L155.8-24.05 153.45-20.53Q151.9-21.55 150.06-22.2 148.22-22.85 145.92-22.85L145.92-22.85Q143.25-22.85 142.08-22.05 140.92-21.25 140.92-19.93L140.92-19.93Q140.92-18.95 141.51-18.29 142.1-17.63 143.55-17.06 145-16.5 147.65-15.75L147.65-15.75Q150.22-15.05 152.13-14.1 154.05-13.15 155.11-11.59 156.17-10.03 156.17-7.53L156.17-7.53Q156.17-4.67 154.53-2.86 152.9-1.05 150.23-0.19 147.57 0.68 144.52 0.68L144.52 0.68Q140.85 0.68 138.17-0.39 135.5-1.45 133.67-3.05L133.67-3.05 136.65-6.45Q138.2-5.2 140.2-4.41 142.2-3.63 144.52-3.63Z" opacity="1" transform="matrix(1,0,0,1,0,0)" fill="#ffffff" class="slogan-text-1" data-fill-palette-color="quaternary" id="text-1"></path></svg></g></svg></g></svg></g></svg></g><g></g></svg></g></svg></g></svg></g></svg></g><defs></defs></svg><rect width="512" height="320" fill="none" stroke="none" visibility="hidden"></rect></g></svg></g></svg>